# This file uses centimeters as units for non-parametric coordinates.

mtllib Spike.mtl
g default
v -0.500000 0.113779 0.500000
v 0.500000 0.113779 0.500000
v -0.260043 0.310763 0.260043
v 0.260043 0.310763 0.260043
v -0.260043 0.310763 -0.260043
v 0.260043 0.310763 -0.260043
v -0.500000 0.113779 -0.500000
v 0.500000 0.113779 -0.500000
v -0.000000 0.075550 0.500000
v 0.000000 0.075550 -0.500000
v 0.500000 0.075550 0.000000
v -0.500000 0.075550 0.000000
v -0.544687 0.292352 -0.544687
v -0.544687 0.292352 0.544687
v 0.544687 0.292352 0.544687
v 0.544687 0.292352 -0.544687
v 0.380021 0.193156 -0.380021
v -0.380021 0.193156 -0.380021
v -0.380021 0.193156 0.380021
v 0.380021 0.193156 0.380021
v 0.180057 0.389167 0.000000
v 0.000000 0.389167 -0.180057
v -0.180057 0.389167 0.000000
v 0.000000 0.389167 0.180057
v -0.000000 0.232359 -0.561092
v -0.561092 0.232359 0.000000
v -0.000000 0.232359 0.561092
v 0.561092 0.232359 0.000000
v -0.090028 0.389167 0.090028
v 0.090028 0.389167 0.090028
v 0.090028 0.389167 -0.090028
v -0.090028 0.389167 -0.090028
v -0.315011 0.134353 0.440011
v -0.440011 0.134353 0.315011
v 0.440011 0.134353 0.315011
v 0.315011 0.134353 0.440011
v 0.315011 0.134353 -0.440011
v 0.440011 0.134353 -0.315011
v -0.440011 0.134353 -0.315011
v -0.315011 0.134353 -0.440011
v 0.000000 0.610461 -0.000000
vt 0.698505 0.957931
vt 0.056290 0.841948
vt 0.786582 0.898765
vt 0.805613 0.886017
vt 0.815365 0.817451
vt 0.873388 0.901233
vt 0.877435 0.825188
vt 0.869567 0.754443
vt 0.930281 0.733429
vt 0.151462 0.895988
vt 0.220321 0.895988
vt 0.185891 0.980618
vt 0.009208 0.892524
vt 0.078068 0.892524
vt 0.043638 0.977153
vt 0.899462 0.903287
vt 0.909190 0.834715
vt 0.967187 0.918494
vt 0.117023 0.117123
vt 0.216472 0.001992
vt 0.216472 0.147712
vt 0.315920 0.117123
vt 0.182042 0.182142
vt 0.147612 0.216572
vt 0.285331 0.216572
vt 0.250902 0.182142
vt 0.182042 0.251001
vt 0.001892 0.216572
vt 0.431052 0.216572
vt 0.250902 0.251001
vt 0.117023 0.316020
vt 0.216472 0.285431
vt 0.315920 0.316020
vt 0.216472 0.431151
vt 0.857737 0.389593
vt 0.928482 0.412535
vt 0.737266 0.412535
vt 0.885009 0.359421
vt 0.839125 0.313538
vt 0.930893 0.214089
vt 0.907951 0.334559
vt 0.947982 0.422395
vt 0.359796 0.521566
vt 0.551012 0.712782
vt 0.359796 0.712782
vt 0.336854 0.642036
vt 0.900899 0.215513
vt 0.877957 0.095043
vt 0.900899 0.024297
vt 0.841978 0.067573
vt 0.796094 0.113457
vt 0.696646 0.021689
vt 0.817116 0.044631
vt 0.904951 0.004600
vt 0.247448 0.549286
vt 0.270390 0.620031
vt 0.247448 0.740501
vt 0.056232 0.549286
vt 0.633836 0.014136
vt 0.656778 0.134606
vt 0.633836 0.205352
vt 0.687542 0.160772
vt 0.733426 0.114888
vt 0.832874 0.206655
vt 0.712404 0.183713
vt 0.624569 0.223745
vt 0.056536 0.651491
vt 0.247752 0.842707
vt 0.706800 0.398786
vt 0.515584 0.398786
vt 0.636054 0.375844
vt 0.666964 0.352902
vt 0.621081 0.307019
vt 0.712848 0.207570
vt 0.689906 0.328040
vt 0.729938 0.415876
vt 0.277316 0.841948
vt 0.254867 0.772720
vt 0.277562 0.651491
vt 0.468778 0.842706
vt 0.720140 0.888233
vt 0.734337 0.824753
vt 0.780396 0.952652
vt 0.850763 0.692254
vt 0.127370 0.940595
vt 0.269624 0.944060
vt 0.878242 0.670958
vt 0.745525 0.426186
vt 0.715541 0.541317
vt 0.655572 0.517953
vt 0.745525 0.426186
vt 0.813703 0.678186
vt 0.843687 0.777635
vt 0.753734 0.678186
vt 0.843687 0.578737
vt 0.811806 0.541317
vt 0.751838 0.517953
vt 0.841791 0.426186
vt 0.841791 0.426186
vt 0.657953 0.678186
vt 0.747906 0.578737
vt 0.717922 0.678186
vt 0.747906 0.777635
vt 0.768607 0.818911
vt 0.943743 0.829917
vt 0.849917 0.812652
vt 0.033839 0.772720
vt 0.874481 0.971701
vn -0.765090 -0.233757 -0.599995
vn -0.765091 -0.233757 -0.599995
vn -0.765090 -0.233757 -0.599995
vn -0.599995 -0.233757 -0.765090
vn -0.599995 -0.233757 -0.765090
vn -0.599995 -0.233757 -0.765090
vn -0.599995 -0.233757 0.765090
vn -0.599995 -0.233757 0.765090
vn -0.599995 -0.233757 0.765090
vn 0.765090 -0.233757 0.599995
vn 0.765090 -0.233757 0.599995
vn 0.765090 -0.233757 0.599995
vn 0.765090 -0.233757 -0.599995
vn 0.765091 -0.233757 -0.599995
vn 0.765090 -0.233757 -0.599995
vn -0.765090 -0.233757 0.599995
vn -0.765091 -0.233757 0.599995
vn -0.765090 -0.233757 0.599995
vn 0.599995 -0.233757 -0.765090
vn 0.599995 -0.233757 -0.765090
vn 0.599995 -0.233757 -0.765090
vn 0.599995 -0.233757 0.765090
vn 0.599995 -0.233757 0.765090
vn 0.599995 -0.233757 0.765090
vn -0.159685 0.912887 0.375683
vn -0.159685 0.912887 0.375683
vn -0.159685 0.912887 0.375683
vn 0.159685 0.912887 0.375683
vn 0.159685 0.912887 0.375683
vn 0.159685 0.912887 0.375683
vn 0.375683 0.912887 -0.159685
vn 0.375683 0.912887 -0.159685
vn 0.375683 0.912887 -0.159685
vn 0.375683 0.912887 0.159685
vn 0.375683 0.912887 0.159685
vn 0.375683 0.912887 0.159685
vn -0.159685 0.912887 -0.375683
vn -0.159685 0.912887 -0.375683
vn -0.159685 0.912887 -0.375683
vn 0.159685 0.912887 -0.375683
vn 0.159685 0.912887 -0.375683
vn 0.159685 0.912887 -0.375683
vn -0.375683 0.912887 0.159685
vn -0.375683 0.912887 0.159685
vn -0.375683 0.912887 0.159685
vn -0.375683 0.912887 -0.159685
vn -0.375683 0.912887 -0.159685
vn -0.375683 0.912887 -0.159685
vn -0.124158 0.790181 -0.600166
vn -0.124158 0.790181 -0.600166
vn -0.124158 0.790181 -0.600166
vn 0.600165 0.790181 0.124158
vn 0.600165 0.790181 0.124158
vn 0.600165 0.790181 0.124158
vn 0.320236 -0.153784 0.934772
vn 0.320236 -0.153784 0.934772
vn 0.320236 -0.153784 0.934772
vn -0.934772 -0.153784 -0.320237
vn -0.934772 -0.153784 -0.320237
vn -0.934772 -0.153784 -0.320237
vn 0.124158 0.790181 -0.600165
vn 0.124158 0.790181 -0.600165
vn 0.124158 0.790181 -0.600165
vn 0.934772 -0.153784 -0.320236
vn 0.934772 -0.153784 -0.320236
vn 0.934772 -0.153784 -0.320236
vn -0.600166 0.790181 0.124158
vn -0.600166 0.790181 0.124158
vn -0.600166 0.790181 0.124158
vn -0.320236 -0.153784 0.934772
vn -0.320236 -0.153784 0.934772
vn -0.320236 -0.153784 0.934772
vn 0.124157 0.790181 0.600165
vn 0.124157 0.790181 0.600166
vn 0.124157 0.790181 0.600166
vn -0.600165 0.790181 -0.124158
vn -0.600165 0.790181 -0.124158
vn -0.600165 0.790181 -0.124158
vn -0.320236 -0.153784 -0.934772
vn -0.320236 -0.153784 -0.934772
vn -0.320236 -0.153784 -0.934772
vn 0.934772 -0.153784 0.320237
vn 0.934772 -0.153784 0.320237
vn 0.934772 -0.153784 0.320237
vn -0.219221 0.950728 -0.219221
vn -0.219221 0.950729 -0.219221
vn -0.219221 0.950728 -0.219221
vn -0.219221 0.950729 -0.219221
vn -0.219221 0.950728 0.219221
vn -0.219221 0.950728 0.219221
vn -0.219221 0.950728 0.219221
vn -0.219221 0.950728 0.219221
vn 0.219221 0.950728 -0.219221
vn 0.219221 0.950729 -0.219221
vn 0.219221 0.950728 -0.219221
vn 0.219221 0.950729 -0.219221
vn 0.000000 0.376837 -0.926280
vn 0.000000 0.376837 -0.926280
vn 0.000000 0.376837 -0.926280
vn -0.926280 0.376837 -0.000000
vn -0.926280 0.376837 -0.000000
vn -0.926280 0.376837 -0.000000
vn 0.926280 0.376837 0.000000
vn 0.926280 0.376837 0.000000
vn 0.926280 0.376837 0.000000
vn -0.000000 0.376837 0.926280
vn -0.000000 0.376837 0.926280
vn -0.000000 0.376837 0.926280
vn 0.000000 1.000000 0.000000
vn 0.000000 1.000000 0.000000
vn 0.000000 1.000000 0.000000
vn 0.000000 1.000000 -0.000000
vn 0.000000 1.000000 -0.000000
vn 0.000000 1.000000 -0.000000
vn 0.219221 0.950728 0.219221
vn 0.219221 0.950729 0.219221
vn 0.219221 0.950728 0.219221
vn 0.219221 0.950729 0.219221
vn 0.000000 1.000000 0.000000
vn 0.000000 1.000000 0.000000
vn 0.000000 1.000000 0.000000
vn 0.000000 1.000000 0.000000
vn 0.000000 1.000000 0.000000
vn 0.000000 1.000000 0.000000
vn 0.700011 0.714132 0.000000
vn 0.700011 0.714132 0.000000
vn 0.700011 0.714132 0.000000
vn 0.000000 0.714132 -0.700011
vn 0.000000 0.714132 -0.700011
vn 0.000000 0.714132 -0.700011
vn -0.066031 0.863616 -0.499807
vn -0.066031 0.863616 -0.499807
vn -0.066031 0.863616 -0.499807
vn 0.076015 -0.994205 -0.076015
vn 0.076015 -0.994205 -0.076015
vn 0.076015 -0.994205 -0.076015
vn 0.499807 0.863616 0.066031
vn 0.499807 0.863616 0.066031
vn 0.499807 0.863616 0.066031
vn 0.700012 0.714131 -0.000000
vn 0.700012 0.714131 -0.000000
vn 0.700012 0.714131 -0.000000
vn 0.700012 0.714131 0.000000
vn 0.700012 0.714131 0.000000
vn 0.700012 0.714131 0.000000
vn 0.700012 0.714131 -0.000000
vn 0.700012 0.714131 -0.000000
vn 0.700012 0.714131 -0.000000
vn 0.000000 0.714132 0.700011
vn 0.000000 0.714132 0.700011
vn 0.000000 0.714132 0.700011
vn 0.499807 0.863616 -0.066031
vn 0.499807 0.863616 -0.066031
vn 0.499807 0.863616 -0.066031
vn -0.066031 0.863616 0.499807
vn -0.066031 0.863617 0.499807
vn -0.066031 0.863616 0.499807
vn 0.076015 -0.994205 0.076015
vn 0.076015 -0.994205 0.076015
vn 0.076015 -0.994205 0.076015
vn -0.000000 0.714132 0.700011
vn -0.000000 0.714132 0.700011
vn -0.000000 0.714132 0.700011
vn 0.000000 0.714131 0.700012
vn 0.000000 0.714131 0.700012
vn 0.000000 0.714131 0.700012
vn 0.000000 0.714131 0.700012
vn 0.000000 0.714131 0.700012
vn 0.000000 0.714131 0.700012
vn -0.700012 0.714131 -0.000000
vn -0.700012 0.714131 -0.000000
vn -0.700012 0.714131 -0.000000
vn 0.066031 0.863617 0.499806
vn 0.066031 0.863617 0.499806
vn 0.066031 0.863617 0.499806
vn -0.499806 0.863617 -0.066031
vn -0.499806 0.863617 -0.066031
vn -0.499806 0.863617 -0.066031
vn -0.076015 -0.994205 0.076015
vn -0.076015 -0.994205 0.076015
vn -0.076015 -0.994205 0.076015
vn -0.124158 0.790181 0.600165
vn -0.124158 0.790181 0.600165
vn -0.124158 0.790181 0.600165
vn -0.700011 0.714132 0.000000
vn -0.700011 0.714132 0.000000
vn -0.700011 0.714132 0.000000
vn -0.700012 0.714131 0.000000
vn -0.700012 0.714131 0.000000
vn -0.700012 0.714131 0.000000
vn -0.700012 0.714132 0.000000
vn -0.700012 0.714132 0.000000
vn -0.700012 0.714132 0.000000
vn 0.600166 0.790181 -0.124158
vn 0.600166 0.790181 -0.124158
vn 0.600166 0.790181 -0.124158
vn -0.000000 0.714132 -0.700011
vn -0.000000 0.714132 -0.700011
vn -0.000000 0.714132 -0.700011
vn 0.000000 0.714131 -0.700012
vn 0.000000 0.714131 -0.700012
vn 0.000000 0.714131 -0.700012
vn -0.934772 -0.153784 0.320236
vn -0.934772 -0.153784 0.320236
vn -0.934772 -0.153784 0.320236
vn 0.320236 -0.153784 -0.934772
vn 0.320236 -0.153784 -0.934772
vn 0.320236 -0.153784 -0.934772
vn -0.499807 0.863616 0.066031
vn -0.499807 0.863616 0.066031
vn -0.499807 0.863616 0.066031
vn 0.066031 0.863616 -0.499807
vn 0.066031 0.863617 -0.499807
vn 0.066031 0.863616 -0.499807
vn -0.076015 -0.994205 -0.076015
vn -0.076015 -0.994205 -0.076015
vn -0.076015 -0.994205 -0.076015
vn 0.000000 0.714131 -0.700012
vn 0.000000 0.714131 -0.700012
vn 0.000000 0.714131 -0.700012
s off
g pCube1
usemtl lambert2SG
f 5/88/1 25/89/2 10/90/3
f 26/92/4 5/93/5 12/94/6
f 3/95/7 26/92/8 12/94/9
f 27/96/10 9/97/11 4/98/12
f 10/90/13 25/89/14 6/91/15
f 9/97/16 27/96/17 3/99/18
f 11/100/19 6/101/20 28/102/21
f 11/100/22 28/102/23 4/103/24
f 3/19/25 27/20/26 24/21/27
f 27/20/28 4/22/29 24/21/30
f 28/29/31 6/33/32 21/25/33
f 4/22/34 28/29/35 21/25/36
f 25/34/37 5/31/38 22/32/39
f 6/33/40 25/34/41 22/32/42
f 26/28/43 3/19/44 23/24/45
f 5/31/46 26/28/47 23/24/48
f 19/62/49 34/65/50 14/66/51
f 33/82/52 19/104/53 14/3/54
f 1/81/55 33/82/56 14/3/57
f 34/1/58 1/81/59 14/3/60
f 35/5/61 20/106/62 15/6/63
f 2/4/64 35/5/65 15/6/66
f 20/50/67 36/53/68 15/54/69
f 36/83/70 2/4/71 15/6/72
f 17/38/73 38/41/74 16/42/75
f 37/84/76 17/87/77 16/9/78
f 8/8/79 37/84/80 16/9/81
f 38/7/82 8/8/83 16/9/84
f 5/31/85 23/24/86 32/27/87 22/32/88
f 3/19/89 24/21/90 29/23/91 23/24/92
f 6/33/93 22/32/94 31/30/95 21/25/96
f 31/14/97 32/85/98 41/15/99
f 32/10/100 29/11/101 41/12/102
f 30/13/103 31/14/104 41/15/105
f 29/11/106 30/86/107 41/12/108
f 32/27/109 31/30/110 22/32/111
f 29/23/112 32/27/113 23/24/114
f 4/22/115 21/25/116 30/26/117 24/21/118
f 29/23/119 24/21/120 30/26/121
f 30/26/122 21/25/123 31/30/124
f 38/41/125 17/38/126 11/40/127
f 17/38/128 37/35/129 10/37/130
f 37/35/131 8/36/132 10/37/133
f 11/43/134 10/44/135 8/45/136
f 8/45/137 38/46/138 11/43/139
f 20/50/140 35/48/141 11/47/142
f 4/51/143 20/50/144 11/47/145
f 17/38/146 6/39/147 11/40/148
f 36/53/149 20/50/150 9/52/151
f 11/47/152 35/48/153 2/49/154
f 2/55/155 36/56/156 9/57/157
f 9/57/158 11/58/159 2/55/160
f 19/62/161 33/60/162 9/59/163
f 9/52/164 20/50/165 4/51/166
f 3/63/167 19/62/168 9/59/169
f 34/65/170 19/62/171 12/64/172
f 9/59/173 33/60/174 1/61/175
f 1/2/176 34/107/177 12/67/178
f 9/68/179 1/2/180 12/67/181
f 39/17/182 18/105/183 13/18/184
f 18/72/185 39/71/186 12/70/187
f 12/64/188 19/62/189 3/63/190
f 5/73/191 18/72/192 12/70/193
f 18/72/194 40/75/195 13/76/196
f 40/75/197 18/72/198 10/74/199
f 10/74/200 18/72/201 5/73/202
f 7/16/203 39/17/204 13/18/205
f 40/108/206 7/16/207 13/18/208
f 7/69/209 12/70/210 39/71/211
f 7/77/212 40/78/213 10/79/214
f 10/79/215 12/80/216 7/77/217
f 6/39/218 17/38/219 10/37/220
